<?xml version="1.0" standalone="no"?><!DOCTYPE svg PUBLIC "-//W3C//DTD SVG 1.1//EN" "http://www.w3.org/Graphics/SVG/1.1/DTD/svg11.dtd"><svg t="1702171556596" class="icon" viewBox="0 0 1024 1024" version="1.1" xmlns="http://www.w3.org/2000/svg" p-id="14112" xmlns:xlink="http://www.w3.org/1999/xlink" width="200" height="200"><path d="M513.39 960.51c-83.38 0-164.68-23.13-235.13-66.89C209.75 851.06 154 790.76 117.03 719.24l-21.54-41.69 44.99 13.33c37.08 10.99 75.76 16.56 114.98 16.56 54.85 0 108.04-10.73 158.1-31.9 48.36-20.45 91.8-49.74 129.1-87.04 37.3-37.3 66.59-80.74 87.04-129.1 21.17-50.06 31.9-103.25 31.9-158.1 0-64.91-15.67-129.39-45.3-186.47l-21.61-41.64 45.01 13.23c45.69 13.43 88.76 34.07 128.01 61.34 38.69 26.87 72.75 59.53 101.25 97.07 28.81 37.96 51.22 79.97 66.6 124.89 15.91 46.45 23.97 95.12 23.97 144.65 0 60.23-11.8 118.66-35.06 173.68-22.47 53.13-54.63 100.84-95.59 141.8-40.96 40.96-88.67 73.13-141.8 95.59-55.03 23.27-113.46 35.07-173.69 35.07zM175.88 740.34c32.08 47.91 74.15 88.65 123.48 119.3 64.11 39.82 138.12 60.87 214.03 60.87 54.85 0 108.04-10.73 158.1-31.9 48.36-20.45 91.8-49.74 129.1-87.04 37.3-37.3 66.59-80.74 87.04-129.1 21.17-50.06 31.9-103.25 31.9-158.1 0-89.47-28.5-174.31-82.43-245.35-25.96-34.19-56.98-63.94-92.21-88.41-23.1-16.04-47.64-29.56-73.34-40.42 19.75 51.08 30.05 105.96 30.05 161.11 0 60.23-11.8 118.66-35.06 173.68-22.47 53.13-54.63 100.84-95.6 141.8-40.96 40.96-88.67 73.13-141.8 95.59-55.02 23.27-113.45 35.06-173.68 35.06-26.84 0.01-53.46-2.37-79.58-7.09z" fill="#E3C386" p-id="14113"></path></svg>