<?xml version="1.0" standalone="no"?><!DOCTYPE svg PUBLIC "-//W3C//DTD SVG 1.1//EN" "http://www.w3.org/Graphics/SVG/1.1/DTD/svg11.dtd"><svg t="1702171458726" class="icon" viewBox="0 0 1024 1024" version="1.1" xmlns="http://www.w3.org/2000/svg" p-id="10832" xmlns:xlink="http://www.w3.org/1999/xlink" width="200" height="200"><path d="M513 958.54c-60.19 0-118.6-11.79-173.59-35.05-53.11-22.46-100.8-54.61-141.74-95.56-40.95-40.95-73.1-88.64-95.56-141.74-23.26-54.99-35.05-113.4-35.05-173.59S78.84 394 102.1 339c22.46-53.11 54.61-100.8 95.56-141.74s88.64-73.1 141.74-95.56c55-23.26 113.41-35.06 173.6-35.06s118.6 11.79 173.59 35.05c53.11 22.46 100.79 54.61 141.74 95.56s73.1 88.64 95.56 141.74c23.26 54.99 35.05 113.4 35.05 173.59s-11.79 118.6-35.05 173.59c-22.46 53.11-54.61 100.79-95.56 141.74s-88.64 73.1-141.74 95.56c-54.99 23.28-113.4 35.07-173.59 35.07z m0-851.9c-54.81 0-107.97 10.73-158.01 31.89-48.34 20.45-91.75 49.72-129.04 87.01s-66.56 80.7-87.01 129.04c-21.16 50.03-31.89 103.2-31.89 158.01 0 54.81 10.73 107.97 31.89 158.01 20.45 48.34 49.72 91.75 87.01 129.04 37.29 37.29 80.7 66.56 129.04 87.01 50.03 21.16 103.2 31.89 158.01 31.89s107.97-10.73 158.01-31.89c48.34-20.45 91.75-49.72 129.04-87.01 37.29-37.29 66.56-80.71 87.01-129.04 21.16-50.04 31.89-103.2 31.89-158.01 0-54.81-10.73-107.97-31.89-158.01-20.45-48.34-49.72-91.75-87.01-129.04s-80.7-66.56-129.04-87.01c-50.04-21.15-103.2-31.89-158.01-31.89z m-0.63 492.81c-48.11 0-87.26-39.14-87.26-87.25s39.14-87.26 87.26-87.26c48.11 0 87.25 39.14 87.25 87.26 0 48.11-39.14 87.25-87.25 87.25z m0-134.51c-26.06 0-47.26 21.2-47.26 47.26s21.2 47.25 47.26 47.25 47.25-21.2 47.25-47.25-21.2-47.26-47.25-47.26z" fill="#E3C386" p-id="10833"></path><path d="M464.803121 559.758226a67.26 67.26 0 1 0 95.118344-95.121665 67.26 67.26 0 1 0-95.118344 95.121665Z" fill="#E3C386" p-id="10834"></path></svg>